<svg width="16" height="16" viewBox="0 0 16 16" fill="none" xmlns="http://www.w3.org/2000/svg">
<path d="M9.33337 14.666H6.66671C4.15255 14.666 2.89547 14.666 2.11442 13.885C1.33337 13.1039 1.33337 11.8468 1.33337 9.33268V7.99935C1.33337 5.48519 1.33337 4.22811 2.11442 3.44706C2.89547 2.66602 4.15255 2.66602 6.66671 2.66602H9.33337C11.8475 2.66602 13.1046 2.66602 13.8857 3.44706C14.6667 4.22811 14.6667 5.48519 14.6667 7.99935V9.33268C14.6667 11.8468 14.6667 13.1039 13.8857 13.885C13.4502 14.3204 12.8668 14.5131 12 14.5984" stroke="white" stroke-linecap="round"/>
<path d="M4.66663 2.66602V1.66602" stroke="white" stroke-linecap="round"/>
<path d="M11.3334 2.66602V1.66602" stroke="white" stroke-linecap="round"/>
<path d="M14.3334 6H11.0834H7.16671M1.33337 6H3.91671" stroke="white" stroke-linecap="round"/>
<path d="M11.3336 11C11.5175 11.0002 11.6665 11.1492 11.6666 11.333C11.6666 11.517 11.5176 11.6668 11.3336 11.667C11.1495 11.667 10.9996 11.5171 10.9996 11.333C10.9998 11.1491 11.1496 11 11.3336 11ZM11.3336 8.33301C11.5176 8.33318 11.6666 8.48301 11.6666 8.66699C11.6665 8.85083 11.5175 8.99982 11.3336 9C11.1496 9 10.9998 8.85094 10.9996 8.66699C10.9996 8.4829 11.1495 8.33301 11.3336 8.33301Z" fill="#171A26" stroke="white" stroke-width="0.666667"/>
<path d="M8.00037 11C8.1842 11.0002 8.3332 11.1492 8.33337 11.333C8.33337 11.517 8.18431 11.6668 8.00037 11.667C7.81627 11.667 7.66638 11.5171 7.66638 11.333C7.66656 11.1491 7.81638 11 8.00037 11ZM8.00037 8.33301C8.18431 8.33318 8.33337 8.48301 8.33337 8.66699C8.3332 8.85083 8.1842 8.99982 8.00037 9C7.81638 9 7.66656 8.85094 7.66638 8.66699C7.66638 8.4829 7.81627 8.33301 8.00037 8.33301Z" fill="#171A26" stroke="white" stroke-width="0.666667"/>
<path d="M5.33333 11.3333C5.33333 11.7015 5.03486 12 4.66667 12C4.29848 12 4 11.7015 4 11.3333C4 10.9651 4.29848 10.6667 4.66667 10.6667C5.03486 10.6667 5.33333 10.9651 5.33333 11.3333Z" fill="#171A26"/>
<path d="M5.33333 8.66667C5.33333 9.03486 5.03486 9.33333 4.66667 9.33333C4.29848 9.33333 4 9.03486 4 8.66667C4 8.29848 4.29848 8 4.66667 8C5.03486 8 5.33333 8.29848 5.33333 8.66667Z" fill="#171A26"/>
</svg>
