<svg width="16" height="16" viewBox="0 0 16 16" fill="none" xmlns="http://www.w3.org/2000/svg">
<path fill-rule="evenodd" clip-rule="evenodd" d="M14.6666 8.00065C14.6666 11.6825 11.6818 14.6673 7.99992 14.6673C4.31802 14.6673 1.33325 11.6825 1.33325 8.00065C1.33325 4.31875 4.31802 1.33398 7.99992 1.33398C11.6818 1.33398 14.6666 4.31875 14.6666 8.00065ZM5.97967 5.98042C6.17493 5.78516 6.49152 5.78516 6.68678 5.98042L7.9999 7.29354L9.313 5.98043C9.50827 5.78517 9.82485 5.78517 10.0201 5.98043C10.2154 6.17569 10.2154 6.49228 10.0201 6.68754L8.707 8.00064L10.0201 9.31374C10.2154 9.509 10.2154 9.82558 10.0201 10.0208C9.82483 10.2161 9.50825 10.2161 9.31299 10.0208L7.9999 8.70775L6.68679 10.0209C6.49153 10.2161 6.17495 10.2161 5.97968 10.0209C5.78442 9.8256 5.78442 9.50901 5.97968 9.31375L7.29279 8.00064L5.97967 6.68752C5.78441 6.49226 5.78441 6.17568 5.97967 5.98042Z" fill="#E13C36"/>
</svg>
