<svg width="18" height="18" viewBox="0 0 18 18" fill="none" xmlns="http://www.w3.org/2000/svg">
<g clip-path="url(#clip0_67_4070)">
<path d="M8.25 6L9.375 4.875V7.875" stroke="white" stroke-width="1.125" stroke-linecap="round" stroke-linejoin="round"/>
<path d="M14.25 3.75L14.9615 3.98716C15.704 4.23467 16.0753 4.35843 16.2876 4.65306C16.5 4.94769 16.5 5.33905 16.5 6.12175L16.5 6.17615C16.4999 6.82171 16.4999 7.14449 16.3445 7.40857C16.1891 7.67266 15.907 7.82942 15.3427 8.14293L13.125 9.375" stroke="white" stroke-width="1.125"/>
<path d="M3.74996 3.75L3.03849 3.98716C2.29595 4.23467 1.92468 4.35843 1.71232 4.65306C1.49997 4.94769 1.49998 5.33905 1.5 6.12175L1.5 6.17615C1.50002 6.82171 1.50003 7.14449 1.65542 7.40857C1.81081 7.67266 2.09297 7.82942 2.65729 8.14293L4.87496 9.375" stroke="white" stroke-width="1.125"/>
<path d="M9 12V14.25" stroke="white" stroke-width="1.125" stroke-linecap="round"/>
<path d="M11.625 16.5H6.375L6.62942 15.2279C6.69953 14.8773 7.00734 14.625 7.36485 14.625H10.6351C10.9927 14.625 11.3005 14.8773 11.3706 15.2279L11.625 16.5Z" stroke="white" stroke-width="1.125" stroke-linecap="round" stroke-linejoin="round"/>
<path d="M13.5 16.5H4.5" stroke="white" stroke-width="1.125" stroke-linecap="round"/>
<path d="M12.7499 1.84198C13.306 1.9481 13.6357 2.06474 13.9206 2.41562C14.2774 2.85505 14.2585 3.32998 14.2208 4.27985C14.0852 7.69466 13.3199 12 8.99999 12C4.68004 12 3.91475 7.69466 3.77918 4.27985C3.74147 3.32998 3.72261 2.85505 4.0794 2.41562C4.43619 1.9762 4.86321 1.90415 5.71726 1.76006C6.56031 1.61782 7.66233 1.5 8.99999 1.5C9.53868 1.5 10.0391 1.51911 10.4999 1.55122" stroke="white" stroke-width="1.125" stroke-linecap="round"/>
</g>
<defs>
<clipPath id="clip0_67_4070">
<rect width="18" height="18" fill="white"/>
</clipPath>
</defs>
</svg>
