<svg width="16" height="16" viewBox="0 0 16 16" fill="none" xmlns="http://www.w3.org/2000/svg">
<path opacity="0.5" d="M9.46675 2H6.53341C3.76784 2 2.38506 2 1.5259 2.87868C0.666748 3.75736 0.666748 5.17157 0.666748 8C0.666748 10.8284 0.666748 12.2426 1.5259 13.1213C2.38506 14 3.76784 14 6.53341 14H9.46675C12.2323 14 13.6151 14 14.4743 13.1213C15.3334 12.2426 15.3334 10.8284 15.3334 8C15.3334 5.17157 15.3334 3.75736 14.4743 2.87868C13.6151 2 12.2323 2 9.46675 2Z" fill="white"/>
<path d="M12.7522 5.35535C12.9855 5.16089 13.017 4.81408 12.8226 4.58072C12.6281 4.34737 12.2813 4.31584 12.048 4.5103L10.4648 5.82963C9.7806 6.39977 9.30559 6.79433 8.90457 7.05225C8.51637 7.30193 8.25312 7.38573 8.00006 7.38573C7.74701 7.38573 7.48375 7.30193 7.09556 7.05225C6.69453 6.79433 6.21952 6.39977 5.53535 5.82963L3.95216 4.5103C3.71881 4.31584 3.372 4.34737 3.17754 4.58072C2.98308 4.81408 3.01461 5.16089 3.24796 5.35535L4.85872 6.69765C5.50872 7.23933 6.03555 7.67837 6.50053 7.97742C6.98489 8.28895 7.45661 8.48573 8.00006 8.48573C8.54352 8.48573 9.01524 8.28895 9.4996 7.97742C9.96458 7.67837 10.4914 7.23933 11.1414 6.69764L12.7522 5.35535Z" fill="white"/>
</svg>
