<svg width="24" height="24" viewBox="0 0 24 24" fill="none" xmlns="http://www.w3.org/2000/svg">
<g clip-path="url(#paint0_diamond_58_19335_clip_path)" data-figma-skip-parse="true"><g transform="matrix(-0.0133238 0.02075 -0.0213177 -0.0317955 15.3238 1.25)"><rect x="0" y="0" width="1000" height="479.227" fill="url(#paint0_diamond_58_19335)" opacity="1" shape-rendering="crispEdges"/><rect x="0" y="0" width="1000" height="479.227" transform="scale(1 -1)" fill="url(#paint0_diamond_58_19335)" opacity="1" shape-rendering="crispEdges"/><rect x="0" y="0" width="1000" height="479.227" transform="scale(-1 1)" fill="url(#paint0_diamond_58_19335)" opacity="1" shape-rendering="crispEdges"/><rect x="0" y="0" width="1000" height="479.227" transform="scale(-1)" fill="url(#paint0_diamond_58_19335)" opacity="1" shape-rendering="crispEdges"/></g></g><path fill-rule="evenodd" clip-rule="evenodd" d="M6.75 8C6.75 5.10051 9.10051 2.75 12 2.75C14.4453 2.75 16.5018 4.42242 17.0846 6.68694C17.1879 7.08808 17.5968 7.32957 17.9979 7.22633C18.3991 7.12308 18.6405 6.7142 18.5373 6.31306C17.788 3.4019 15.1463 1.25 12 1.25C8.27208 1.25 5.25 4.27208 5.25 8V10.0546C4.13525 10.1379 3.40931 10.348 2.87868 10.8787C2 11.7574 2 13.1716 2 16C2 18.8284 2 20.2426 2.87868 21.1213C3.75736 22 5.17157 22 8 22H16C18.8284 22 20.2426 22 21.1213 21.1213C22 20.2426 22 18.8284 22 16C22 13.1716 22 11.7574 21.1213 10.8787C20.2426 10 18.8284 10 16 10H8C7.54849 10 7.13301 10 6.75 10.0036V8ZM8 17C8.55228 17 9 16.5523 9 16C9 15.4477 8.55228 15 8 15C7.44772 15 7 15.4477 7 16C7 16.5523 7.44772 17 8 17ZM12 17C12.5523 17 13 16.5523 13 16C13 15.4477 12.5523 15 12 15C11.4477 15 11 15.4477 11 16C11 16.5523 11.4477 17 12 17ZM17 16C17 16.5523 16.5523 17 16 17C15.4477 17 15 16.5523 15 16C15 15.4477 15.4477 15 16 15C16.5523 15 17 15.4477 17 16Z" data-figma-gradient-fill="{&#34;type&#34;:&#34;GRADIENT_DIAMOND&#34;,&#34;stops&#34;:[{&#34;color&#34;:{&#34;r&#34;:0.57799065113067627,&#34;g&#34;:0.75991785526275635,&#34;b&#34;:0.99382424354553223,&#34;a&#34;:1.0},&#34;position&#34;:0.0},{&#34;color&#34;:{&#34;r&#34;:0.0039215688593685627,&#34;g&#34;:0.40392157435417175,&#34;b&#34;:1.0,&#34;a&#34;:1.0},&#34;position&#34;:1.0}],&#34;stopsVar&#34;:[{&#34;color&#34;:{&#34;r&#34;:0.57799065113067627,&#34;g&#34;:0.75991785526275635,&#34;b&#34;:0.99382424354553223,&#34;a&#34;:1.0},&#34;position&#34;:0.0},{&#34;color&#34;:{&#34;r&#34;:0.0039215688593685627,&#34;g&#34;:0.40392157435417175,&#34;b&#34;:1.0,&#34;a&#34;:1.0},&#34;position&#34;:1.0}],&#34;transform&#34;:{&#34;m00&#34;:-26.647563934326172,&#34;m01&#34;:-42.635417938232422,&#34;m02&#34;:49.965274810791016,&#34;m10&#34;:41.499992370605469,&#34;m11&#34;:-63.590961456298828,&#34;m12&#34;:12.295486450195312},&#34;opacity&#34;:1.0,&#34;blendMode&#34;:&#34;NORMAL&#34;,&#34;visible&#34;:true}"/>
<defs>
<clipPath id="paint0_diamond_58_19335_clip_path"><path fill-rule="evenodd" clip-rule="evenodd" d="M6.75 8C6.75 5.10051 9.10051 2.75 12 2.75C14.4453 2.75 16.5018 4.42242 17.0846 6.68694C17.1879 7.08808 17.5968 7.32957 17.9979 7.22633C18.3991 7.12308 18.6405 6.7142 18.5373 6.31306C17.788 3.4019 15.1463 1.25 12 1.25C8.27208 1.25 5.25 4.27208 5.25 8V10.0546C4.13525 10.1379 3.40931 10.348 2.87868 10.8787C2 11.7574 2 13.1716 2 16C2 18.8284 2 20.2426 2.87868 21.1213C3.75736 22 5.17157 22 8 22H16C18.8284 22 20.2426 22 21.1213 21.1213C22 20.2426 22 18.8284 22 16C22 13.1716 22 11.7574 21.1213 10.8787C20.2426 10 18.8284 10 16 10H8C7.54849 10 7.13301 10 6.75 10.0036V8ZM8 17C8.55228 17 9 16.5523 9 16C9 15.4477 8.55228 15 8 15C7.44772 15 7 15.4477 7 16C7 16.5523 7.44772 17 8 17ZM12 17C12.5523 17 13 16.5523 13 16C13 15.4477 12.5523 15 12 15C11.4477 15 11 15.4477 11 16C11 16.5523 11.4477 17 12 17ZM17 16C17 16.5523 16.5523 17 16 17C15.4477 17 15 16.5523 15 16C15 15.4477 15.4477 15 16 15C16.5523 15 17 15.4477 17 16Z"/></clipPath><linearGradient id="paint0_diamond_58_19335" x1="0" y1="0" x2="500" y2="500" gradientUnits="userSpaceOnUse">
<stop stop-color="#93C2FD"/>
<stop offset="1" stop-color="#0167FF"/>
</linearGradient>
</defs>
</svg>
