<svg width="60" height="60" viewBox="0 0 60 60" fill="none" xmlns="http://www.w3.org/2000/svg">
<path opacity="0.5" d="M39.9995 5L37.4995 5C30.4284 5 26.894 5.00056 24.6973 7.19727C22.5006 9.39397 22.5006 12.9295 22.5006 20.0006L22.5006 40.0006C22.5006 47.0716 22.5006 50.6072 24.6973 52.8039C26.8934 55 30.4266 55 37.494 55L37.4995 55L39.9995 55C47.0705 55 50.606 55 52.8027 52.8033C54.9994 50.6066 54.9994 47.0711 54.9994 40L54.9994 20L54.9994 19.9999C54.9994 12.9289 54.9994 9.39339 52.8027 7.1967C50.6061 5 47.0705 5 39.9995 5Z" fill="#E13C36"/>
<path fill-rule="evenodd" clip-rule="evenodd" d="M39.375 30C39.375 28.9644 38.5355 28.125 37.5 28.125L10.0686 28.125L14.9702 23.9236C15.7565 23.2497 15.8475 22.066 15.1736 21.2797C14.4997 20.4935 13.316 20.4024 12.5298 21.0764L3.77977 28.5764C3.36418 28.9326 3.125 29.4526 3.125 30C3.125 30.5473 3.36418 31.0674 3.77977 31.4236L12.5298 38.9236C13.316 39.5975 14.4997 39.5064 15.1736 38.7202C15.8475 37.934 15.7565 36.7503 14.9702 36.0764L10.0686 31.875L37.5 31.875C38.5355 31.875 39.375 31.0355 39.375 30Z" fill="#E13C36"/>
</svg>
