<svg width="18" height="18" viewBox="0 0 18 18" fill="none" xmlns="http://www.w3.org/2000/svg">
<path d="M15.3247 10.63C15.3579 10.3211 15.1344 10.0438 14.8256 10.0105C14.5167 9.97732 14.2393 10.2008 14.2061 10.5097L14.7654 10.5698L15.3247 10.63ZM3.2346 10.5698L2.67533 10.63L3.2346 10.5698ZM3.09708 9.29132L3.65636 9.23116V9.23116L3.09708 9.29132ZM6.57004 8.20047L7.0613 8.47446V8.47446L6.57004 8.20047ZM7.91216 5.79405L7.4209 5.52006V5.52006L7.91216 5.79405ZM10.0878 5.79405L9.59658 6.06804V6.06804L10.0878 5.79405ZM11.43 8.20047L11.9212 7.92648V7.92648L11.43 8.20047ZM12.0028 8.96937L11.7762 9.48417L11.7762 9.48417L12.0028 8.96937ZM13.1029 8.43386L12.7059 8.03534V8.03534L13.1029 8.43386ZM12.34 9.0164L12.2629 8.4592H12.2629L12.34 9.0164ZM4.89712 8.43386L4.50015 8.83238L4.89712 8.43386ZM5.66002 9.0164L5.73707 8.4592H5.73707L5.66002 9.0164ZM5.99716 8.96937L6.22384 9.48417L6.22385 9.48417L5.99716 8.96937ZM4.28406 15.1149L4.65921 14.6957H4.65921L4.28406 15.1149ZM13.7159 15.1149L13.3408 14.6957V14.6957L13.7159 15.1149ZM14.9867 7.87492L14.9802 8.43739L14.9867 7.87492ZM14.1484 7.48509L14.574 7.11737L14.1484 7.48509ZM9.68075 5.08699L9.42512 4.58593L9.68075 5.08699ZM8.31925 5.08699L8.57488 4.58593V4.58593L8.31925 5.08699ZM9.81595 15.75V15.1875H8.18405V15.75V16.3125H9.81595V15.75ZM3.2346 10.5698L3.79388 10.5097L3.65636 9.23116L3.09708 9.29132L2.53781 9.35147L2.67533 10.63L3.2346 10.5698ZM6.57004 8.20047L7.0613 8.47446L8.40342 6.06804L7.91216 5.79405L7.4209 5.52006L6.07878 7.92648L6.57004 8.20047ZM10.0878 5.79405L9.59658 6.06804L10.9387 8.47446L11.43 8.20047L11.9212 7.92648L10.5791 5.52006L10.0878 5.79405ZM11.43 8.20047L10.9387 8.47446C11.06 8.692 11.1717 8.89369 11.2799 9.04784C11.3913 9.2065 11.5433 9.38165 11.7762 9.48417L12.0028 8.96937L12.2295 8.45457C12.2714 8.473 12.2643 8.49198 12.2006 8.40134C12.1338 8.3062 12.0545 8.16548 11.9212 7.92648L11.43 8.20047ZM13.1029 8.43386L12.7059 8.03534C12.5119 8.22864 12.3967 8.34232 12.3062 8.41559C12.2198 8.48543 12.2179 8.46543 12.2629 8.4592L12.34 9.0164L12.417 9.5736C12.6688 9.53878 12.863 9.41215 13.0137 9.2902C13.1602 9.17167 13.3232 9.00838 13.4998 8.83238L13.1029 8.43386ZM12.0028 8.96937L11.7762 9.48417C11.9774 9.57277 12.1993 9.60371 12.417 9.5736L12.34 9.0164L12.2629 8.4592C12.2515 8.46078 12.2399 8.45914 12.2295 8.45457L12.0028 8.96937ZM4.89712 8.43386L4.50015 8.83238C4.67684 9.00838 4.83975 9.17167 4.98626 9.2902C5.137 9.41216 5.33118 9.53878 5.58298 9.5736L5.66002 9.0164L5.73707 8.4592C5.78208 8.46543 5.78017 8.48543 5.69385 8.41559C5.60328 8.34232 5.48814 8.22864 5.29409 8.03534L4.89712 8.43386ZM6.57004 8.20047L6.07878 7.92648C5.94549 8.16548 5.86618 8.3062 5.79938 8.40134C5.73573 8.49198 5.72861 8.473 5.77046 8.45457L5.99716 8.96937L6.22385 9.48417C6.45666 9.38165 6.60866 9.2065 6.72007 9.04784C6.82831 8.89369 6.93997 8.692 7.0613 8.47446L6.57004 8.20047ZM5.66002 9.0164L5.58298 9.5736C5.80071 9.60371 6.02262 9.57277 6.22384 9.48417L5.99716 8.96937L5.77047 8.45457C5.76008 8.45914 5.7485 8.46078 5.73707 8.4592L5.66002 9.0164ZM8.18405 15.75V15.1875C7.10565 15.1875 6.35039 15.1864 5.77393 15.1127C5.21317 15.0409 4.89638 14.908 4.65921 14.6957L4.28406 15.1149L3.9089 15.534C4.3813 15.9568 4.95103 16.1415 5.63114 16.2286C6.29554 16.3136 7.13549 16.3125 8.18405 16.3125V15.75ZM3.2346 10.5698L2.67533 10.63C2.78644 11.663 2.87462 12.6749 3.02492 13.4955C3.10073 13.9094 3.19633 14.2994 3.32875 14.6379C3.46004 14.9736 3.64118 15.2944 3.9089 15.534L4.28406 15.1149L4.65921 14.6957C4.57215 14.6178 4.47304 14.475 4.37644 14.2281C4.28097 13.984 4.20104 13.6724 4.13151 13.2928C3.99112 12.5263 3.90935 11.5832 3.79388 10.5097L3.2346 10.5698ZM14.7654 10.5698L14.2061 10.5097C14.0906 11.5832 14.0089 12.5263 13.8685 13.2928C13.799 13.6724 13.719 13.984 13.6236 14.2281C13.527 14.475 13.4278 14.6178 13.3408 14.6957L13.7159 15.1149L14.0911 15.534C14.3588 15.2944 14.54 14.9736 14.6713 14.6379C14.8037 14.2994 14.8993 13.9094 14.9751 13.4955C15.1254 12.6749 15.2136 11.663 15.3247 10.63L14.7654 10.5698ZM9.81595 15.75V16.3125C10.8645 16.3125 11.7045 16.3136 12.3689 16.2286C13.049 16.1415 13.6187 15.9568 14.0911 15.534L13.7159 15.1149L13.3408 14.6957C13.1036 14.908 12.7868 15.0409 12.2261 15.1127C11.6496 15.1864 10.8943 15.1875 9.81595 15.1875V15.75ZM7.5 3.75H8.0625C8.0625 3.23223 8.48223 2.8125 9 2.8125V2.25V1.6875C7.86091 1.6875 6.9375 2.61091 6.9375 3.75H7.5ZM9 2.25V2.8125C9.51777 2.8125 9.9375 3.23223 9.9375 3.75H10.5H11.0625C11.0625 2.61091 10.1391 1.6875 9 1.6875V2.25ZM16.125 6.75H15.5625C15.5625 7.06066 15.3107 7.3125 15 7.3125V7.875V8.4375C15.932 8.4375 16.6875 7.68198 16.6875 6.75H16.125ZM13.875 6.75H14.4375C14.4375 6.43934 14.6893 6.1875 15 6.1875V5.625V5.0625C14.068 5.0625 13.3125 5.81802 13.3125 6.75H13.875ZM15 5.625V6.1875C15.3107 6.1875 15.5625 6.43934 15.5625 6.75H16.125H16.6875C16.6875 5.81802 15.932 5.0625 15 5.0625V5.625ZM3 7.875V7.3125C2.68934 7.3125 2.4375 7.06066 2.4375 6.75H1.875H1.3125C1.3125 7.68198 2.06802 8.4375 3 8.4375V7.875ZM1.875 6.75H2.4375C2.4375 6.43934 2.68934 6.1875 3 6.1875V5.625V5.0625C2.06802 5.0625 1.3125 5.81802 1.3125 6.75H1.875ZM3 5.625V6.1875C3.31066 6.1875 3.5625 6.43934 3.5625 6.75H4.125H4.6875C4.6875 5.81802 3.93198 5.0625 3 5.0625V5.625ZM15 7.875V7.3125C14.9977 7.3125 14.9955 7.31249 14.9932 7.31246L14.9867 7.87492L14.9802 8.43739C14.9868 8.43746 14.9934 8.4375 15 8.4375V7.875ZM14.9867 7.87492L14.9932 7.31246C14.8261 7.31053 14.6767 7.2362 14.574 7.11737L14.1484 7.48509L13.7227 7.85282C14.0272 8.20534 14.4774 8.43157 14.9802 8.43739L14.9867 7.87492ZM14.1484 7.48509L14.574 7.11737C14.4886 7.0185 14.4375 6.89092 14.4375 6.75H13.875H13.3125C13.3125 7.17107 13.4674 7.55737 13.7227 7.85282L14.1484 7.48509ZM13.1029 8.43386L13.4998 8.83238C14.008 8.32625 14.2697 8.07124 14.4438 7.96376L14.1484 7.48509L13.8529 7.00643C13.538 7.20082 13.1603 7.58273 12.7059 8.03534L13.1029 8.43386ZM4.125 6.75H3.5625C3.5625 6.89092 3.51141 7.01849 3.42599 7.11737L3.85165 7.48509L4.2773 7.85282C4.53255 7.55737 4.6875 7.17107 4.6875 6.75H4.125ZM4.89712 8.43386L5.29409 8.03534C4.83972 7.58273 4.46202 7.20082 4.1471 7.00643L3.85165 7.48509L3.5562 7.96375C3.73033 8.07124 3.99205 8.32626 4.50015 8.83238L4.89712 8.43386ZM3.85165 7.48509L3.42599 7.11737C3.32333 7.2362 3.17394 7.31053 3.00678 7.31246L3.01328 7.87492L3.01979 8.43739C3.52257 8.43157 3.97275 8.20534 4.2773 7.85282L3.85165 7.48509ZM3.01328 7.87492L3.00678 7.31246C3.00452 7.31249 3.00226 7.3125 3 7.3125V7.875V8.4375C3.00661 8.4375 3.01321 8.43746 3.01979 8.43739L3.01328 7.87492ZM3.09708 9.29132L3.65636 9.23116C3.61928 8.88646 3.59015 8.61485 3.57451 8.39399C3.5585 8.16808 3.55977 8.03196 3.5708 7.94962L3.01328 7.87492L2.45577 7.80023C2.42878 8.00169 2.43526 8.23269 2.45232 8.47349C2.46973 8.71933 2.50151 9.01403 2.53781 9.35147L3.09708 9.29132ZM10.5 3.75H9.9375C9.9375 4.11378 9.73043 4.43017 9.42512 4.58593L9.68075 5.08699L9.93638 5.58804C10.6036 5.24764 11.0625 4.5529 11.0625 3.75H10.5ZM9.68075 5.08699L9.42512 4.58593C9.29814 4.65071 9.15419 4.6875 9 4.6875V5.25V5.8125C9.33599 5.8125 9.65475 5.73173 9.93638 5.58804L9.68075 5.08699ZM10.0878 5.79405L10.5791 5.52006C10.4244 5.24265 10.2854 4.99309 10.1578 4.7889L9.68075 5.08699L9.20373 5.38508C9.31322 5.56029 9.43711 5.78211 9.59658 6.06804L10.0878 5.79405ZM9 5.25V4.6875C8.84581 4.6875 8.70186 4.65071 8.57488 4.58593L8.31925 5.08699L8.06362 5.58805C8.34525 5.73173 8.66401 5.8125 9 5.8125V5.25ZM8.31925 5.08699L8.57488 4.58593C8.26957 4.43017 8.0625 4.11378 8.0625 3.75H7.5H6.9375C6.9375 4.5529 7.3964 5.24764 8.06362 5.58805L8.31925 5.08699ZM7.91216 5.79405L8.40342 6.06804C8.56289 5.78211 8.68678 5.56029 8.79627 5.38508L8.31925 5.08699L7.84223 4.7889C7.71463 4.99309 7.57562 5.24265 7.4209 5.52006L7.91216 5.79405Z" fill="white"/>
<path d="M3.75 13.125H14.25" stroke="white" stroke-width="1.125" stroke-linecap="round"/>
</svg>
