<svg width="16" height="16" viewBox="0 0 16 16" fill="none" xmlns="http://www.w3.org/2000/svg">
<path opacity="0.5" d="M1.33325 10.666C1.33325 8.7804 1.33325 7.83759 1.91904 7.2518C2.50482 6.66602 3.44763 6.66602 5.33325 6.66602H10.6666C12.5522 6.66602 13.495 6.66602 14.0808 7.2518C14.6666 7.83759 14.6666 8.7804 14.6666 10.666C14.6666 12.5516 14.6666 13.4944 14.0808 14.0802C13.495 14.666 12.5522 14.666 10.6666 14.666H5.33325C3.44763 14.666 2.50482 14.666 1.91904 14.0802C1.33325 13.4944 1.33325 12.5516 1.33325 10.666Z" fill="white"/>
<path d="M4.5 5.33398C4.5 3.40099 6.067 1.83398 8 1.83398C9.933 1.83398 11.5 3.40099 11.5 5.33398V6.6697C11.8782 6.67323 12.209 6.68199 12.5 6.70372V5.33398C12.5 2.8487 10.4853 0.833984 8 0.833984C5.51472 0.833984 3.5 2.8487 3.5 5.33398V6.70372C3.79101 6.68199 4.12176 6.67323 4.5 6.6697V5.33398Z" fill="white"/>
</svg>
