<svg width="16" height="16" viewBox="0 0 16 16" fill="none" xmlns="http://www.w3.org/2000/svg">
<g clip-path="url(#clip0_128_3781)">
<path d="M8.00024 1.88867C11.3752 1.88879 14.1116 4.625 14.1116 8C14.1115 11.3749 11.3751 14.1112 8.00024 14.1113C4.62524 14.1113 1.88903 11.375 1.88892 8C1.88892 4.62493 4.62517 1.88867 8.00024 1.88867ZM8.00024 3C5.23882 3 3.00024 5.23858 3.00024 8C3.00036 10.7613 5.23889 13 8.00024 13C10.7615 12.9999 13.0001 10.7613 13.0002 8C13.0002 5.23865 10.7616 3.00012 8.00024 3ZM8.00024 10.2217C8.3069 10.2218 8.55579 10.4707 8.55591 10.7773C8.55591 11.0841 8.30697 11.3329 8.00024 11.333C7.69342 11.333 7.44458 11.0842 7.44458 10.7773C7.4447 10.4706 7.69349 10.2217 8.00024 10.2217ZM8.00024 4.66699C8.30682 4.66711 8.55567 4.91513 8.55591 5.22168V9.11133C8.55567 9.41788 8.30682 9.66687 8.00024 9.66699C7.69356 9.66699 7.44481 9.41795 7.44458 9.11133V5.22168C7.44481 4.91505 7.69356 4.66699 8.00024 4.66699Z" fill="white"/>
</g>
<defs>
<clipPath id="clip0_128_3781">
<rect width="13.3333" height="13.3333" fill="white" transform="translate(1.33337 1.33398)"/>
</clipPath>
</defs>
</svg>
