<svg width="18" height="18" viewBox="0 0 18 18" fill="none" xmlns="http://www.w3.org/2000/svg">
<g clip-path="url(#clip0_67_4055)">
<path d="M16.5 16.5H1.5" stroke="white" stroke-width="1.125" stroke-linecap="round"/>
<path d="M15.75 16.5V10.875C15.75 10.2537 15.2463 9.75 14.625 9.75H12.375C11.7537 9.75 11.25 10.2537 11.25 10.875V16.5" stroke="white" stroke-width="1.125"/>
<path d="M11.25 16.5V6.75M6.75 16.5V3.75C6.75 2.68934 6.75 2.15901 7.0795 1.8295C7.40901 1.5 7.93934 1.5 9 1.5C10.0607 1.5 10.591 1.5 10.9205 1.8295C11.25 2.15901 11.25 2.68934 11.25 3.75V3.75" stroke="white" stroke-width="1.125" stroke-linecap="round" stroke-linejoin="round"/>
<path d="M6.75 16.5V7.125C6.75 6.50368 6.24632 6 5.625 6H3.375C2.75368 6 2.25 6.50368 2.25 7.125V12M2.25 16.5V14.8125" stroke="white" stroke-width="1.125" stroke-linecap="round"/>
</g>
<defs>
<clipPath id="clip0_67_4055">
<rect width="18" height="18" fill="white"/>
</clipPath>
</defs>
</svg>
