<svg width="18" height="18" viewBox="0 0 18 18" fill="none" xmlns="http://www.w3.org/2000/svg">
<g clip-path="url(#clip0_67_4095)">
<path d="M9 1.5C13.1421 1.5 16.5 4.85786 16.5 9C16.5 10.3661 16.1348 11.6468 15.4966 12.75M3.75 3.64393C2.36148 5.00512 1.5 6.90195 1.5 9C1.5 13.1421 4.85786 16.5 9 16.5C10.3661 16.5 11.6468 16.1348 12.75 15.4966" stroke="white" stroke-width="1.125" stroke-linecap="round"/>
<path d="M3.75 9C3.75 10.1154 4.09786 11.1496 4.69102 12M9 3.75C11.8995 3.75 14.25 6.10051 14.25 9C14.25 11.8995 11.8995 14.25 9 14.25C8.1948 14.25 7.43194 14.0687 6.75 13.7448" stroke="white" stroke-width="1.125" stroke-linecap="round"/>
<path d="M9 12C10.6569 12 12 10.6569 12 9C12 7.34315 10.6569 6 9 6" stroke="white" stroke-width="1.125" stroke-linecap="round"/>
</g>
<defs>
<clipPath id="clip0_67_4095">
<rect width="18" height="18" fill="white"/>
</clipPath>
</defs>
</svg>
