<svg width="18" height="18" viewBox="0 0 18 18" fill="none" xmlns="http://www.w3.org/2000/svg">
<circle cx="13.875" cy="3.375" r="1.875" stroke="white" stroke-width="1.125"/>
<path d="M6.75 12.75L5.99942 13.6507C5.4465 14.3142 5.17003 14.646 4.79209 14.823C4.41414 15 3.98229 15 3.11859 15H2.25" stroke="white" stroke-width="1.125" stroke-linecap="round"/>
<path d="M4.35464 7.10546C4.62475 6.95199 4.7193 6.60862 4.56583 6.33851C4.41236 6.06841 4.06898 5.97385 3.79888 6.12732L4.07676 6.61639L4.35464 7.10546ZM2.72212 6.73912C2.45201 6.89259 2.35746 7.23596 2.51093 7.50607C2.6644 7.77617 3.00777 7.87073 3.27788 7.71726L3 7.22819L2.72212 6.73912ZM11.8127 7.59495L11.3446 7.90698L11.3446 7.90698L11.8127 7.59495ZM11.8594 7.66506L12.3274 7.35303V7.35303L11.8594 7.66506ZM8.22661 4.99119L8.28469 4.43169V4.43169L8.22661 4.99119ZM8.05482 4.97814L8.02991 5.54009H8.02991L8.05482 4.97814ZM7.61608 5.00611L7.53914 4.4489V4.4489L7.61608 5.00611ZM15.75 9.56342C16.0607 9.56342 16.3125 9.31157 16.3125 9.00092C16.3125 8.69025 16.0607 8.43842 15.75 8.43842V9.00092V9.56342ZM6.55356 4.70559C6.26246 4.81408 6.11442 5.13802 6.22292 5.42912C6.33141 5.72022 6.65534 5.86825 6.94644 5.75976L6.75 5.23267L6.55356 4.70559ZM4.07676 6.61639L3.79888 6.12732L2.72212 6.73912L3 7.22819L3.27788 7.71726L4.35464 7.10546L4.07676 6.61639ZM11.8127 7.59495L11.3446 7.90698L11.3914 7.97709L11.8594 7.66506L12.3274 7.35303L12.2807 7.28293L11.8127 7.59495ZM8.22661 4.99119L8.28469 4.43169C8.20788 4.42372 8.13973 4.41885 8.07972 4.41619L8.05482 4.97814L8.02991 5.54009C8.06692 5.54173 8.11293 5.54491 8.16854 5.55068L8.22661 4.99119ZM14.3555 9.00092V9.56342H15.75V9.00092V8.43842H14.3555V9.00092ZM8.05482 4.97814L8.07972 4.41619C7.88245 4.40745 7.69628 4.4272 7.53914 4.4489L7.61608 5.00611L7.69303 5.56333C7.82661 5.54488 7.93398 5.53584 8.02991 5.54009L8.05482 4.97814ZM11.8594 7.66506L11.3914 7.97709C12.0521 8.96814 13.1644 9.56342 14.3555 9.56342V9.00092V8.43842C13.5405 8.43842 12.7795 8.03112 12.3274 7.35303L11.8594 7.66506ZM11.8127 7.59495L12.2807 7.28293C11.3976 5.95835 10.0716 4.61718 8.28469 4.43169L8.22661 4.99119L8.16854 5.55068C9.44542 5.68322 10.519 6.66862 11.3446 7.90698L11.8127 7.59495ZM6.75 5.23267L6.94644 5.75976C7.2171 5.65889 7.45789 5.5958 7.69303 5.56333L7.61608 5.00611L7.53914 4.4489C7.20805 4.49462 6.88659 4.58147 6.55356 4.70559L6.75 5.23267Z" fill="white"/>
<path d="M10.5 6.375L8.83451 8.45667C8.20715 9.24078 7.89347 9.63283 7.84344 10.0597C7.81532 10.2997 7.8456 10.543 7.9317 10.7688C8.08485 11.1704 8.48507 11.4736 9.2855 12.08C9.89518 12.5419 10.2 12.7728 10.4066 13.0747C10.5245 13.2469 10.6178 13.4347 10.6839 13.6326C10.7998 13.9795 10.7998 14.362 10.7998 15.1269V16.4999" stroke="white" stroke-width="1.125" stroke-linecap="round"/>
</svg>
