<svg width="14" height="14" viewBox="0 0 14 14" fill="none" xmlns="http://www.w3.org/2000/svg">
<g clip-path="url(#clip0_61_6379)">
<path d="M14 0.000502746C14.0031 0.18343 13.995 0.361911 13.9758 0.543779C13.9732 0.569203 13.9706 0.594626 13.968 0.62082C13.9595 0.703914 13.9508 0.786985 13.9421 0.870055C13.9361 0.928189 13.9301 0.986324 13.9241 1.04446C13.9116 1.16584 13.8989 1.28721 13.8862 1.40858C13.8699 1.56406 13.8539 1.71958 13.838 1.87511C13.8257 1.99497 13.8132 2.1148 13.8007 2.23464C13.7947 2.29199 13.7888 2.34934 13.783 2.4067C13.7748 2.48675 13.7664 2.56677 13.7579 2.64679C13.7543 2.68223 13.7543 2.68223 13.7507 2.71838C13.7302 2.90706 13.6984 3.02409 13.5505 3.15187C13.526 3.17316 13.5015 3.19445 13.4763 3.21638C13.3757 3.3008 13.2741 3.38375 13.172 3.46632C13.0998 3.52607 13.0302 3.58778 12.9609 3.65089C12.8434 3.75805 12.7214 3.85848 12.5978 3.95851C12.5021 4.03766 12.4108 4.12109 12.3191 4.20471C12.2481 4.26782 12.1752 4.3278 12.1013 4.38747C11.9973 4.47157 11.8972 4.55836 11.7988 4.64894C11.6766 4.76143 11.5503 4.86689 11.421 4.97119C11.3491 5.03056 11.2799 5.09197 11.2109 5.1548C11.1181 5.23944 11.0233 5.32027 10.9255 5.39918C10.8215 5.48329 10.7215 5.57008 10.623 5.66066C10.5008 5.77315 10.3745 5.87861 10.2453 5.98291C10.1733 6.04228 10.1041 6.10369 10.0352 6.16652C9.9423 6.25116 9.84753 6.33199 9.74976 6.4109C9.64576 6.49501 9.54568 6.5818 9.44727 6.67238C9.32504 6.78486 9.1987 6.89033 9.06947 6.99463C8.99754 7.054 8.9283 7.11541 8.85937 7.17824C8.76652 7.26288 8.67175 7.34371 8.57397 7.42262C8.46998 7.50673 8.3699 7.59352 8.27148 7.6841C8.14926 7.79658 8.02292 7.90205 7.89369 8.00635C7.82176 8.06571 7.75252 8.12713 7.68359 8.18995C7.59073 8.2746 7.49597 8.35543 7.39819 8.43434C7.29419 8.51845 7.19412 8.60524 7.0957 8.69581C6.97348 8.8083 6.84714 8.91377 6.71791 9.01806C6.64598 9.07743 6.57673 9.13885 6.50781 9.20167C6.39024 9.30883 6.2683 9.40926 6.14465 9.50929C6.0493 9.5882 5.95827 9.67136 5.86684 9.75474C5.76735 9.84314 5.66404 9.92651 5.56029 10.0098C5.50835 10.0528 5.46052 10.0963 5.41406 10.145C5.44953 10.2232 5.4869 10.2793 5.54775 10.3396C5.56362 10.3555 5.57949 10.3714 5.59585 10.3877C5.61291 10.4045 5.62997 10.4213 5.64755 10.4386C5.66508 10.456 5.6826 10.4734 5.70065 10.4914C5.75653 10.547 5.81259 10.6024 5.86865 10.6577C5.90662 10.6954 5.94457 10.7331 5.98251 10.7708C6.07544 10.8632 6.16853 10.9553 6.26172 11.0474C6.17466 11.1504 6.08777 11.2522 5.99191 11.3472C5.97394 11.3651 5.95596 11.383 5.93744 11.4014C5.91925 11.4194 5.90106 11.4373 5.88232 11.4558C5.85409 11.4839 5.85409 11.4839 5.82529 11.5125C5.77942 11.558 5.73349 11.6035 5.6875 11.6489C5.5852 11.6063 5.52035 11.5432 5.44248 11.4652C5.42258 11.4453 5.42257 11.4453 5.40227 11.4251C5.35789 11.3808 5.31371 11.3363 5.26952 11.2919C5.23773 11.26 5.20592 11.2283 5.17411 11.1965C5.08778 11.1102 5.00162 11.0237 4.9155 10.9372C4.82546 10.8468 4.73526 10.7566 4.64508 10.6663C4.47434 10.4954 4.30374 10.3244 4.13319 10.1533C3.93902 9.95847 3.74469 9.76384 3.55035 9.56923C3.15058 9.16889 2.75101 8.76835 2.35156 8.36769C2.39692 8.27135 2.44909 8.20912 2.52524 8.13399C2.5485 8.1109 2.57177 8.08781 2.59573 8.06402C2.62005 8.04016 2.64438 8.0163 2.66943 7.99171C2.69397 7.96743 2.7185 7.94314 2.74377 7.91812C2.80432 7.85822 2.86499 7.79844 2.92578 7.73878C3.12044 7.89756 3.2942 8.07683 3.47095 8.2549C3.503 8.28709 3.53506 8.31927 3.56713 8.35145C3.64509 8.42971 3.72296 8.50805 3.80078 8.58644C3.89788 8.54105 3.95351 8.49141 4.02466 8.41041C4.04619 8.38592 4.06773 8.36142 4.08992 8.33618C4.17521 8.23606 4.2581 8.13412 4.34082 8.03187C4.41994 7.93627 4.50334 7.84501 4.58691 7.75331C4.65059 7.68168 4.71121 7.60821 4.77148 7.5337C4.87024 7.41164 4.97346 7.29499 5.07921 7.17898C5.14232 7.10797 5.2023 7.03512 5.26196 6.9612C5.3675 6.8307 5.47892 6.70707 5.59254 6.58362C5.68058 6.48556 5.76294 6.38344 5.84569 6.28091C5.92443 6.18551 6.00761 6.0946 6.09093 6.0032C6.15404 5.93219 6.21402 5.85934 6.27368 5.78541C6.37922 5.65492 6.49064 5.53129 6.60426 5.40784C6.6923 5.30978 6.77466 5.20765 6.85741 5.10513C6.93615 5.00973 7.01933 4.91882 7.10265 4.82742C7.16575 4.75641 7.22574 4.68356 7.2854 4.60963C7.39094 4.47914 7.50236 4.35551 7.61598 4.23205C7.70402 4.134 7.78638 4.03187 7.86912 3.92935C7.94787 3.83395 8.03105 3.74304 8.11436 3.65164C8.17747 3.58063 8.23746 3.50777 8.29712 3.43385C8.40265 3.30336 8.51408 3.17973 8.6277 3.05627C8.71574 2.95822 8.7981 2.85609 8.88084 2.75357C8.95958 2.65816 9.04277 2.56726 9.12608 2.47586C9.18919 2.40485 9.24918 2.33199 9.30884 2.25807C9.41437 2.12757 9.5258 2.00395 9.63942 1.88049C9.72746 1.78244 9.80982 1.68031 9.89256 1.57779C9.95193 1.50586 10.0133 1.43661 10.0762 1.36769C10.1613 1.27425 10.2427 1.17888 10.3223 1.08058C10.4207 0.958847 10.5237 0.842495 10.6291 0.726821C10.7184 0.626377 10.8027 0.522135 10.887 0.417495C11.0833 0.178456 11.6247 0.218374 11.9241 0.187423C11.9763 0.181986 12.0285 0.176547 12.0807 0.171105C12.1894 0.159795 12.2981 0.148543 12.4067 0.137328C12.5455 0.123 12.6843 0.108489 12.823 0.0939292C12.9305 0.0826757 13.038 0.0715384 13.1455 0.0604337C13.1967 0.0551319 13.2479 0.0497903 13.299 0.0444068C13.3706 0.0368922 13.4421 0.0295395 13.5137 0.0222255C13.5344 0.0200103 13.5552 0.0177951 13.5766 0.0155127C13.7183 0.00125435 13.8575 -0.00128791 14 0.000502746Z" fill="white"/>
<path d="M-0.000172799 0.000643355C0.182755 -0.00245319 0.361236 0.00562891 0.543104 0.0248762C0.568527 0.0274554 0.593951 0.0300345 0.620145 0.0326918C0.703239 0.0411628 0.786309 0.0498389 0.86938 0.0585352C0.927514 0.0645412 0.985649 0.0705406 1.04378 0.0765338C1.16517 0.0890822 1.28654 0.101738 1.4079 0.114464C1.56339 0.130756 1.7189 0.146737 1.87443 0.162634C1.99429 0.174927 2.11413 0.187404 2.23396 0.199936C2.29131 0.205907 2.34867 0.211815 2.40603 0.217659C2.48608 0.225839 2.5661 0.234272 2.64612 0.242772C2.66974 0.245132 2.69337 0.247492 2.71771 0.249924C2.90638 0.270412 3.02342 0.302213 3.15119 0.450106C3.17248 0.474603 3.19377 0.499101 3.21571 0.52434C3.30013 0.624896 3.38307 0.726575 3.46565 0.828646C3.52539 0.90084 3.5871 0.970452 3.65022 1.03971C3.75738 1.15728 3.8578 1.27922 3.95784 1.40287C4.03699 1.49851 4.12042 1.5898 4.20404 1.68154C4.26714 1.75255 4.32713 1.8254 4.38679 1.89933C4.4709 2.00332 4.55769 2.1034 4.64826 2.20182C4.76075 2.32404 4.86622 2.45038 4.97052 2.57961C5.02988 2.65154 5.0913 2.72078 5.15412 2.78971C5.23877 2.88256 5.3196 2.97733 5.39851 3.07511C5.48261 3.1791 5.56941 3.27918 5.65998 3.3776C5.7724 3.49975 5.87783 3.62599 5.98202 3.75518C6.0425 3.82841 6.10521 3.89878 6.16926 3.9689C6.27998 4.09032 6.38163 4.21696 6.4803 4.3483C6.36895 4.50627 6.24425 4.6477 6.11329 4.78964C6.02411 4.88855 5.94088 4.99163 5.85726 5.09523C5.77852 5.19064 5.69534 5.28154 5.61203 5.37294C5.54892 5.44395 5.48893 5.51681 5.42927 5.59073C5.32374 5.72123 5.21231 5.84485 5.09869 5.96831C5.01099 6.06599 4.92892 6.1677 4.84651 6.26984C4.74788 6.38935 4.64363 6.50368 4.53889 6.61783C4.44461 6.57681 4.37965 6.52202 4.30476 6.45206C4.2074 6.36271 4.10852 6.277 4.00569 6.194C3.88362 6.09525 3.76698 5.99203 3.65097 5.88628C3.57995 5.82317 3.5071 5.76319 3.43318 5.70352C3.30268 5.59799 3.17906 5.48657 3.0556 5.37294C2.95754 5.2849 2.85542 5.20254 2.75289 5.1198C2.65749 5.04106 2.56659 4.95788 2.47518 4.87456C2.40417 4.81145 2.33132 4.75147 2.2574 4.69181C2.1269 4.58627 2.00327 4.47485 1.87982 4.36122C1.78176 4.27318 1.67964 4.19083 1.57711 4.10808C1.48171 4.02934 1.3908 3.94616 1.2994 3.86284C1.22839 3.79973 1.15554 3.73975 1.08161 3.68009C0.951349 3.57474 0.827836 3.46368 0.70489 3.34993C0.603388 3.25925 0.496607 3.17603 0.388514 3.09337C0.26063 2.9718 0.258614 2.81368 0.241956 2.64693C0.239281 2.62175 0.236606 2.59656 0.23385 2.57062C0.225072 2.48747 0.216584 2.4043 0.20811 2.32112C0.202071 2.26312 0.196018 2.20512 0.189953 2.14712C0.17728 2.02551 0.164746 1.90389 0.152314 1.78227C0.136426 1.6269 0.120238 1.47156 0.103949 1.31623C0.0914093 1.19639 0.0790098 1.07654 0.0666538 0.956678C0.0607395 0.899432 0.0547872 0.84219 0.0487952 0.784952C0.0404113 0.704622 0.0322118 0.624274 0.0240601 0.54392C0.0215891 0.520572 0.0191182 0.497225 0.0165724 0.473169C0.000811727 0.31522 -0.002859 0.15933 -0.000172799 0.000643355Z" fill="white"/>
<path d="M2.78912 9.92578C2.89715 10.0169 3.00281 10.1087 3.10266 10.2089C3.13549 10.2417 3.13549 10.2417 3.16898 10.2752C3.19191 10.2983 3.21485 10.3213 3.23848 10.3451C3.26249 10.3692 3.28649 10.3932 3.31123 10.418C3.38734 10.4943 3.46335 10.5706 3.53937 10.647C3.59118 10.6989 3.643 10.7509 3.69483 10.8028C3.82139 10.9297 3.94786 11.0566 4.07428 11.1836C3.94169 11.3428 3.7998 11.4905 3.6541 11.6377C3.61618 11.6761 3.61618 11.6761 3.5775 11.7154C3.34603 11.95 3.11375 12.1838 2.88131 12.4175C2.70972 12.59 2.5385 12.7628 2.36776 12.9362C2.24733 13.0584 2.12649 13.1801 2.00534 13.3016C1.9331 13.374 1.86106 13.4466 1.78947 13.5197C1.70971 13.6011 1.62912 13.6816 1.54842 13.7621C1.52491 13.7863 1.50141 13.8106 1.4772 13.8355C1.29586 14.0141 1.29586 14.0141 1.16455 14.0159C0.810211 13.9583 0.499129 13.8003 0.267625 13.5222C0.118417 13.311 -0.0200007 13.0422 -0.0161571 12.7777C0.0211636 12.6331 0.151934 12.5349 0.25609 12.434C0.283615 12.4065 0.311092 12.379 0.338524 12.3515C0.412952 12.277 0.488035 12.2032 0.563255 12.1295C0.641816 12.0523 0.719756 11.9745 0.797764 11.8967C0.945496 11.7497 1.09378 11.6032 1.24226 11.4569C1.41132 11.2903 1.57975 11.1231 1.74813 10.9558C2.09444 10.6117 2.44152 10.2685 2.78912 9.92578Z" fill="white"/>
<path d="M11.1836 9.92578C11.3428 10.0584 11.4905 10.2003 11.6377 10.346C11.6761 10.3839 11.6761 10.3839 11.7154 10.4226C11.95 10.654 12.1838 10.8863 12.4175 11.1188C12.59 11.2903 12.7628 11.4616 12.9362 11.6323C13.0584 11.7527 13.1801 11.8736 13.3016 11.9947C13.374 12.067 13.4466 12.139 13.5197 12.2106C13.6011 12.2903 13.6816 12.3709 13.7621 12.4516C13.7863 12.4751 13.8106 12.4986 13.8355 12.5229C14.0141 12.7042 14.0141 12.7042 14.016 12.8354C13.9742 13.0919 13.8837 13.3015 13.7266 13.5078C13.6961 13.5501 13.6961 13.5501 13.665 13.5933C13.4897 13.7766 13.283 13.8943 13.043 13.9727C13.0188 13.9808 13.0188 13.9808 12.994 13.9891C12.7601 14.0313 12.7601 14.0313 12.6503 13.9554C12.5754 13.8875 12.5043 13.8166 12.434 13.744C12.4065 13.7164 12.379 13.689 12.3515 13.6615C12.277 13.5871 12.2032 13.512 12.1295 13.4368C12.0523 13.3582 11.9745 13.2803 11.8967 13.2023C11.7497 13.0546 11.6032 12.9063 11.4569 12.7578C11.2903 12.5887 11.1231 12.4203 10.9558 12.2519C10.6117 11.9056 10.2685 11.5585 9.92578 11.2109C10.0169 11.1029 10.1087 10.9973 10.2089 10.8974C10.2308 10.8755 10.2526 10.8536 10.2752 10.8311C10.2983 10.8081 10.3213 10.7852 10.3451 10.7616C10.3692 10.7376 10.3932 10.7136 10.418 10.6888C10.4943 10.6127 10.5706 10.5367 10.647 10.4607C10.6989 10.4089 10.7509 10.3571 10.8028 10.3052C10.9297 10.1787 11.0566 10.0522 11.1836 9.92578Z" fill="white"/>
<path d="M9.37891 7.73828C9.60381 7.96076 9.81385 8.19454 10.0112 8.44164C10.0535 8.49302 10.0964 8.54008 10.1445 8.58594C10.2227 8.55047 10.2788 8.5131 10.3391 8.45225C10.355 8.43638 10.3709 8.42051 10.3872 8.40415C10.404 8.38709 10.4208 8.37003 10.438 8.35245C10.4555 8.33492 10.4729 8.3174 10.4909 8.29935C10.5465 8.24347 10.6019 8.18741 10.6572 8.13135C10.6949 8.09338 10.7326 8.05543 10.7703 8.01749C10.8627 7.92456 10.9548 7.83147 11.0469 7.73828C11.1499 7.82534 11.2517 7.91223 11.3467 8.00809C11.3646 8.02606 11.3825 8.04404 11.4009 8.06256C11.4189 8.08075 11.4368 8.09894 11.4553 8.11768C11.474 8.1365 11.4927 8.15532 11.512 8.17471C11.5575 8.22058 11.603 8.26651 11.6484 8.3125C11.6058 8.4148 11.5427 8.47965 11.4647 8.55752C11.4515 8.57079 11.4382 8.58406 11.4246 8.59773C11.3803 8.64211 11.3358 8.68629 11.2914 8.73048C11.2595 8.76227 11.2277 8.79408 11.196 8.82589C11.1097 8.91222 11.0232 8.99838 10.9367 9.0845C10.8463 9.17454 10.7561 9.26474 10.6658 9.35492C10.4949 9.52566 10.3239 9.69626 10.1528 9.86681C9.95797 10.061 9.76334 10.2553 9.56873 10.4497C9.16839 10.8494 8.76785 11.249 8.36719 11.6484C8.27084 11.6031 8.20862 11.5509 8.13348 11.4748C8.1104 11.4515 8.08731 11.4282 8.06352 11.4043C8.03966 11.3799 8.0158 11.3556 7.99121 11.3306C7.95478 11.2938 7.95478 11.2938 7.91762 11.2562C7.85771 11.1957 7.79794 11.135 7.73828 11.0742C7.89706 10.8796 8.07633 10.7058 8.25439 10.5291C8.28659 10.497 8.31877 10.4649 8.35095 10.4329C8.42921 10.3549 8.50755 10.277 8.58594 10.1992C8.54055 10.1021 8.49091 10.0465 8.40991 9.97534C8.38541 9.95381 8.36092 9.93227 8.33568 9.91008C8.23588 9.82507 8.1343 9.74242 8.03233 9.66003C7.93131 9.57635 7.83463 9.4883 7.73817 9.39941C7.68675 9.35025 7.68675 9.35025 7.62891 9.32422C7.65219 9.19205 7.73827 9.13439 7.8374 9.05249C7.87504 9.02067 7.91267 8.98884 7.9503 8.957C7.96962 8.9408 7.98894 8.92459 8.00885 8.90789C8.09782 8.83289 8.18545 8.75637 8.27319 8.67993C8.4518 8.525 8.63122 8.37102 8.81088 8.21732C8.86185 8.17366 8.91274 8.12992 8.96362 8.08617C8.98079 8.07142 8.99795 8.05667 9.01563 8.04147C9.04828 8.01341 9.08092 7.98533 9.11354 7.95724C9.20063 7.88244 9.28878 7.80944 9.37891 7.73828Z" fill="white"/>
</g>
<defs>
<clipPath id="clip0_61_6379">
<rect width="14" height="14" fill="white"/>
</clipPath>
</defs>
</svg>
