<svg width="18" height="18" viewBox="0 0 18 18" fill="none" xmlns="http://www.w3.org/2000/svg">
<g clip-path="url(#clip0_67_4050)">
<path d="M4.52965 5.82902C2.68489 6.24642 1.76251 6.45511 1.54307 7.1608C1.32362 7.86648 1.95244 8.6018 3.21007 10.0724L3.53544 10.4529C3.89282 10.8708 4.07151 11.0798 4.1519 11.3383C4.23228 11.5968 4.20527 11.8756 4.15124 12.4332L4.10205 12.9408C3.91191 14.9029 3.81684 15.884 4.39136 16.3202C4.96588 16.7563 5.82951 16.3587 7.55676 15.5634L8.00362 15.3576C8.49444 15.1316 8.73986 15.0186 9 15.0186C9.26014 15.0186 9.50556 15.1316 9.99639 15.3576L10.4432 15.5634C12.1705 16.3587 13.0341 16.7563 13.6086 16.3202C14.1832 15.884 14.0881 14.9029 13.898 12.9408M14.7899 10.0724C16.0476 8.6018 16.6764 7.86648 16.4569 7.1608C16.2375 6.45511 15.3151 6.24642 13.4703 5.82902L12.9931 5.72104C12.4689 5.60243 12.2068 5.54312 11.9963 5.38336C11.7858 5.22359 11.6509 4.98145 11.3809 4.49717L11.1351 4.05628C10.1851 2.35209 9.71015 1.5 9 1.5C8.28985 1.5 7.81486 2.35209 6.86487 4.05628" stroke="white" stroke-width="1.125" stroke-linecap="round"/>
</g>
<defs>
<clipPath id="clip0_67_4050">
<rect width="18" height="18" rx="3.75" fill="white"/>
</clipPath>
</defs>
</svg>
