<svg width="20" height="18" viewBox="0 0 20 18" fill="none" xmlns="http://www.w3.org/2000/svg">
<path d="M11.6338 0C12.5602 5.53443e-05 13.3662 0.601821 13.623 1.46094L13.6963 1.75391C13.8676 2.3302 14.4049 2.76074 15.0225 2.76074C16.4028 2.82113 17.3042 2.99047 18.0244 3.46289C18.5097 3.78126 18.9267 4.19053 19.251 4.66699C19.9998 5.76754 20 7.29948 20 10.3633C20 13.4275 19.9999 14.9599 19.251 16.0605C18.9267 16.537 18.5097 16.9463 18.0244 17.2646C16.9035 17.9998 15.3431 18 12.2227 18H7.77734C4.65685 18 3.09651 17.9998 1.97559 17.2646C1.4903 16.9463 1.07328 16.537 0.749023 16.0605C5.7299e-05 14.9599 0 13.4275 0 10.3633C1.12145e-09 7.29948 0.000209815 5.76754 0.749023 4.66699C1.07328 4.19053 1.4903 3.78126 1.97559 3.46289C2.69579 2.99047 3.59722 2.82113 4.97754 2.76074C5.59506 2.76074 6.13236 2.3302 6.30371 1.75391L6.37695 1.46094C6.63379 0.601821 7.4398 5.57573e-05 8.36621 0H11.6338ZM10 6.27246C7.69892 6.27255 5.83403 8.10403 5.83398 10.3633C5.83398 12.6226 7.69889 14.454 10 14.4541C12.3012 14.4541 14.167 12.6226 14.167 10.3633C14.1669 8.10398 12.3012 6.27246 10 6.27246ZM10 7.90918C11.3807 7.90918 12.5 9.00771 12.5 10.3633C12.5 11.7189 11.3807 12.8184 10 12.8184C8.61936 12.8183 7.5 11.7188 7.5 10.3633C7.50005 9.00777 8.61939 7.90927 10 7.90918ZM15.5557 6.27246C15.0955 6.27249 14.7227 6.63897 14.7227 7.09082C14.7228 7.54259 15.0955 7.90915 15.5557 7.90918H16.667C17.1271 7.90909 17.4999 7.54256 17.5 7.09082C17.5 6.639 17.1272 6.27255 16.667 6.27246H15.5557Z" fill="white"/>
</svg>
