<svg width="24" height="24" viewBox="0 0 24 24" fill="none" xmlns="http://www.w3.org/2000/svg">
<path d="M15.7283 3.88457C17.1626 2.44468 19.2607 2.41444 20.4221 3.58042C21.5858 4.74859 21.5545 6.85983 20.1192 8.3007L17.6953 10.7339C17.403 11.0274 17.4039 11.5023 17.6974 11.7946C17.9909 12.0869 18.4657 12.086 18.758 11.7925L21.1819 9.3593C23.0932 7.44059 23.3331 4.37726 21.4849 2.52181C19.6344 0.664161 16.5779 0.906274 14.6656 2.82597L9.81793 7.69243C7.90663 9.61114 7.66668 12.6745 9.51494 14.53C9.80727 14.8234 10.2821 14.8243 10.5756 14.532C10.8691 14.2397 10.87 13.7648 10.5777 13.4713C9.414 12.3032 9.44534 10.1919 10.8806 8.75103L15.7283 3.88457Z" fill="#F2CE3A"/>
<path d="M14.4849 9.47135C14.1925 9.17789 13.7177 9.17697 13.4242 9.46929C13.1307 9.76162 13.1298 10.2365 13.4221 10.53C14.5858 11.6981 14.5545 13.8093 13.1192 15.2502L8.27153 20.1167C6.83721 21.5566 4.73913 21.5869 3.57766 20.4209C2.414 19.2527 2.44534 17.1414 3.88065 15.7005L6.30449 13.2673C6.59681 12.9738 6.59589 12.499 6.30243 12.2066C6.00897 11.9143 5.5341 11.9152 5.24177 12.2087L2.81793 14.6419C0.906631 16.5607 0.666672 19.624 2.51495 21.4795C4.36542 23.3371 7.42197 23.095 9.33425 21.1753L14.1819 16.3088C16.0932 14.3901 16.3331 11.3268 14.4849 9.47135Z" fill="#F2CE3A"/>
</svg>
