<svg width="20" height="20" viewBox="0 0 20 20" fill="none" xmlns="http://www.w3.org/2000/svg">
<g clip-path="url(#paint0_diamond_229_4334_clip_path)" data-figma-skip-parse="true"><g transform="matrix(-0.000829036 0.00125556 -0.00132644 -0.0019239 14.1623 6.94531)"><rect x="0" y="0" width="2661.52" height="1544.84" fill="url(#paint0_diamond_229_4334)" opacity="1" shape-rendering="crispEdges"/><rect x="0" y="0" width="2661.52" height="1544.84" transform="scale(1 -1)" fill="url(#paint0_diamond_229_4334)" opacity="1" shape-rendering="crispEdges"/><rect x="0" y="0" width="2661.52" height="1544.84" transform="scale(-1 1)" fill="url(#paint0_diamond_229_4334)" opacity="1" shape-rendering="crispEdges"/><rect x="0" y="0" width="2661.52" height="1544.84" transform="scale(-1)" fill="url(#paint0_diamond_229_4334)" opacity="1" shape-rendering="crispEdges"/></g></g><path d="M12.7414 7.61424C12.4174 7.94112 12.4197 8.46875 12.7466 8.79274C13.0735 9.11672 13.6011 9.11438 13.9251 8.7875L13.3333 8.20087L12.7414 7.61424ZM15.1696 7.53194C15.4936 7.20506 15.4912 6.67743 15.1643 6.35344C14.8374 6.02946 14.3098 6.0318 13.9858 6.35868L14.5777 6.94531L15.1696 7.53194ZM13.3333 8.20087L13.9251 8.7875L15.1696 7.53194L14.5777 6.94531L13.9858 6.35868L12.7414 7.61424L13.3333 8.20087Z" data-figma-gradient-fill="{&#34;type&#34;:&#34;GRADIENT_DIAMOND&#34;,&#34;stops&#34;:[{&#34;color&#34;:{&#34;r&#34;:0.45257732272148132,&#34;g&#34;:0.94742268323898315,&#34;b&#34;:0.63195878267288208,&#34;a&#34;:1.0},&#34;position&#34;:0.0},{&#34;color&#34;:{&#34;r&#34;:0.066666670143604279,&#34;g&#34;:0.69411766529083252,&#34;b&#34;:0.29411765933036804,&#34;a&#34;:1.0},&#34;position&#34;:1.0}],&#34;stopsVar&#34;:[{&#34;color&#34;:{&#34;r&#34;:0.45257732272148132,&#34;g&#34;:0.94742268323898315,&#34;b&#34;:0.63195878267288208,&#34;a&#34;:1.0},&#34;position&#34;:0.0},{&#34;color&#34;:{&#34;r&#34;:0.066666670143604279,&#34;g&#34;:0.69411766529083252,&#34;b&#34;:0.29411765933036804,&#34;a&#34;:1.0},&#34;position&#34;:1.0}],&#34;transform&#34;:{&#34;m00&#34;:-1.6580719947814941,&#34;m01&#34;:-2.6528725624084473,&#34;m02&#34;:16.317760467529297,&#34;m10&#34;:2.5111110210418701,&#34;m11&#34;:-3.8478071689605713,&#34;m12&#34;:7.6136608123779297},&#34;opacity&#34;:1.0,&#34;blendMode&#34;:&#34;NORMAL&#34;,&#34;visible&#34;:true}"/>
<g clip-path="url(#paint1_diamond_229_4334_clip_path)" data-figma-skip-parse="true"><g transform="matrix(-0.00391571 0.00305555 -0.00626504 -0.00468207 9.33783 10)"><rect x="0" y="0" width="1486.84" height="789.253" fill="url(#paint1_diamond_229_4334)" opacity="1" shape-rendering="crispEdges"/><rect x="0" y="0" width="1486.84" height="789.253" transform="scale(1 -1)" fill="url(#paint1_diamond_229_4334)" opacity="1" shape-rendering="crispEdges"/><rect x="0" y="0" width="1486.84" height="789.253" transform="scale(-1 1)" fill="url(#paint1_diamond_229_4334)" opacity="1" shape-rendering="crispEdges"/><rect x="0" y="0" width="1486.84" height="789.253" transform="scale(-1)" fill="url(#paint1_diamond_229_4334)" opacity="1" shape-rendering="crispEdges"/></g></g><path d="M6.01245 9.41182C5.6876 9.08579 5.15997 9.08483 4.83394 9.40967C4.50791 9.73452 4.50695 10.2622 4.83179 10.5882L5.42212 10L6.01245 9.41182ZM8.46656 13.0556L7.87624 13.6437C8.20105 13.9697 8.72862 13.9707 9.05466 13.646L8.46656 13.0556ZM11.888 10.8237C12.2141 10.4989 12.2151 9.97131 11.8903 9.64524C11.5655 9.31916 11.0379 9.31812 10.7118 9.64292L11.2999 10.2333L11.888 10.8237ZM5.42212 10L4.83179 10.5882L7.87624 13.6437L8.46656 13.0556L9.05689 12.4674L6.01245 9.41182L5.42212 10ZM8.46656 13.0556L9.05466 13.646L11.888 10.8237L11.2999 10.2333L10.7118 9.64292L7.87847 12.4651L8.46656 13.0556Z" data-figma-gradient-fill="{&#34;type&#34;:&#34;GRADIENT_DIAMOND&#34;,&#34;stops&#34;:[{&#34;color&#34;:{&#34;r&#34;:0.45257732272148132,&#34;g&#34;:0.94742268323898315,&#34;b&#34;:0.63195878267288208,&#34;a&#34;:1.0},&#34;position&#34;:0.0},{&#34;color&#34;:{&#34;r&#34;:0.066666670143604279,&#34;g&#34;:0.69411766529083252,&#34;b&#34;:0.29411765933036804,&#34;a&#34;:1.0},&#34;position&#34;:1.0}],&#34;stopsVar&#34;:[{&#34;color&#34;:{&#34;r&#34;:0.45257732272148132,&#34;g&#34;:0.94742268323898315,&#34;b&#34;:0.63195878267288208,&#34;a&#34;:1.0},&#34;position&#34;:0.0},{&#34;color&#34;:{&#34;r&#34;:0.066666670143604279,&#34;g&#34;:0.69411766529083252,&#34;b&#34;:0.29411765933036804,&#34;a&#34;:1.0},&#34;position&#34;:1.0}],&#34;transform&#34;:{&#34;m00&#34;:-7.8314228057861328,&#34;m01&#34;:-12.530075073242188,&#34;m02&#34;:19.518579483032227,&#34;m10&#34;:6.1111102104187012,&#34;m11&#34;:-9.3641309738159180,&#34;m12&#34;:11.626510620117188},&#34;opacity&#34;:1.0,&#34;blendMode&#34;:&#34;NORMAL&#34;,&#34;visible&#34;:true}"/>
<defs>
<clipPath id="paint0_diamond_229_4334_clip_path"><path d="M12.7414 7.61424C12.4174 7.94112 12.4197 8.46875 12.7466 8.79274C13.0735 9.11672 13.6011 9.11438 13.9251 8.7875L13.3333 8.20087L12.7414 7.61424ZM15.1696 7.53194C15.4936 7.20506 15.4912 6.67743 15.1643 6.35344C14.8374 6.02946 14.3098 6.0318 13.9858 6.35868L14.5777 6.94531L15.1696 7.53194ZM13.3333 8.20087L13.9251 8.7875L15.1696 7.53194L14.5777 6.94531L13.9858 6.35868L12.7414 7.61424L13.3333 8.20087Z"/></clipPath><clipPath id="paint1_diamond_229_4334_clip_path"><path d="M6.01245 9.41182C5.6876 9.08579 5.15997 9.08483 4.83394 9.40967C4.50791 9.73452 4.50695 10.2622 4.83179 10.5882L5.42212 10L6.01245 9.41182ZM8.46656 13.0556L7.87624 13.6437C8.20105 13.9697 8.72862 13.9707 9.05466 13.646L8.46656 13.0556ZM11.888 10.8237C12.2141 10.4989 12.2151 9.97131 11.8903 9.64524C11.5655 9.31916 11.0379 9.31812 10.7118 9.64292L11.2999 10.2333L11.888 10.8237ZM5.42212 10L4.83179 10.5882L7.87624 13.6437L8.46656 13.0556L9.05689 12.4674L6.01245 9.41182L5.42212 10ZM8.46656 13.0556L9.05466 13.646L11.888 10.8237L11.2999 10.2333L10.7118 9.64292L7.87847 12.4651L8.46656 13.0556Z"/></clipPath><linearGradient id="paint0_diamond_229_4334" x1="0" y1="0" x2="500" y2="500" gradientUnits="userSpaceOnUse">
<stop stop-color="#73F2A1"/>
<stop offset="1" stop-color="#11B14B"/>
</linearGradient>
<linearGradient id="paint1_diamond_229_4334" x1="0" y1="0" x2="500" y2="500" gradientUnits="userSpaceOnUse">
<stop stop-color="#73F2A1"/>
<stop offset="1" stop-color="#11B14B"/>
</linearGradient>
</defs>
</svg>
