<svg width="60" height="60" viewBox="0 0 60 60" fill="none" xmlns="http://www.w3.org/2000/svg">
<path opacity="0.5" d="M28.989 54.9996H31.011C37.9678 54.9996 41.4462 54.9996 43.7078 52.7848C45.9694 50.5699 46.2008 46.9369 46.6635 39.6708L47.3303 29.2011C47.5814 25.2586 47.7069 23.2874 46.5724 22.0382C45.4378 20.7891 43.5218 20.7891 39.6899 20.7891H20.3101C16.4782 20.7891 14.5622 20.7891 13.4276 22.0382C12.2931 23.2874 12.4186 25.2586 12.6697 29.2011L13.3365 39.6708C13.7992 46.9369 14.0306 50.5699 16.2922 52.7848C18.5538 54.9996 22.0322 54.9996 28.989 54.9996Z" fill="#E13C36"/>
<path d="M7.5 15.9649C7.5 14.7538 8.36345 13.772 9.42857 13.772L16.0892 13.7708C17.4126 13.7327 18.58 12.7758 19.0303 11.3603C19.0422 11.3231 19.0558 11.2772 19.1046 11.1106L19.3916 10.1314C19.5673 9.53102 19.7203 9.00796 19.9344 8.54043C20.7802 6.6934 22.3452 5.4108 24.1537 5.08242C24.6114 4.9993 25.0962 4.99965 25.6526 5.00006H34.3478C34.9042 4.99965 35.389 4.9993 35.8468 5.08242C37.6552 5.4108 39.2202 6.6934 40.0661 8.54043C40.2802 9.00796 40.4332 9.53102 40.6088 10.1314L40.8958 11.1106C40.9446 11.2772 40.9582 11.3231 40.9701 11.3603C41.4204 12.7758 42.8195 13.7338 44.1429 13.772H50.5714C51.6365 13.772 52.5 14.7538 52.5 15.9649C52.5 17.1761 51.6365 18.1579 50.5714 18.1579H9.42857C8.36345 18.1579 7.5 17.1761 7.5 15.9649Z" fill="#E13C36"/>
<path fill-rule="evenodd" clip-rule="evenodd" d="M23.5636 28.7033C24.594 28.5948 25.5128 29.3862 25.6158 30.4708L26.8658 43.6287C26.9689 44.7133 26.2171 45.6805 25.1867 45.789C24.1563 45.8974 23.2375 45.1061 23.1344 44.0215L21.8844 30.8636C21.7814 29.779 22.5332 28.8118 23.5636 28.7033Z" fill="#171A26"/>
<path fill-rule="evenodd" clip-rule="evenodd" d="M36.4367 28.7033C37.4671 28.8118 38.2189 29.779 38.1158 30.8636L36.8658 44.0215C36.7628 45.1061 35.844 45.8974 34.8136 45.789C33.7832 45.6805 33.0314 44.7133 33.1344 43.6287L34.3844 30.4708C34.4875 29.3862 35.4063 28.5948 36.4367 28.7033Z" fill="#171A26"/>
</svg>
